<?xml version="1.0" encoding="iso-8859-1"?>
<!-- Generator: Adobe Illustrator 16.0.0, SVG Export Plug-In . SVG Version: 6.00 Build 0)  -->
<!DOCTYPE svg PUBLIC "-//W3C//DTD SVG 1.1//EN" "http://www.w3.org/Graphics/SVG/1.1/DTD/svg11.dtd">
<svg version="1.1" id="Capa_1" xmlns="http://www.w3.org/2000/svg" xmlns:xlink="http://www.w3.org/1999/xlink" x="0px" y="0px"
	 width="333.28px" height="333.28px" viewBox="0 0 333.28 333.28" style="enable-background:new 0 0 333.28 333.28;"
	 xml:space="preserve">
<g>
	<g>
		<path d="M56.707,96.158c4.287,0,7.948-2.674,9.419-6.43c2.728-2.424,8.614-7.621,12.529-11.057
			c0.07-0.062,0.137-0.121,0.207-0.188c0.991-0.936,44.981-42.437,52.866-49.873l45.706-13.954L232.5,43.279l16.398,26.541
			l11.841,35.411l4.113,13.986c-1.813,2.029-2.922,4.685-2.922,7.607c0,6.304,5.126,11.432,11.43,11.432
			c6.3,0,11.43-5.128,11.43-11.432c0-4.303-2.396-8.056-5.92-10.008l-4.624-15.699c-0.02-0.074-0.044-0.161-0.071-0.238
			l-12.148-36.312c-0.171-0.515-0.397-1.008-0.685-1.464l-17.844-28.9c-0.67-1.082-1.621-1.969-2.751-2.554L181.394,0.796
			c-1.644-0.849-3.553-1.03-5.325-0.491L126.022,15.59c-1.035,0.317-1.992,0.869-2.779,1.617L71.479,66.047
			c-0.842,0.791-1.543,1.451-2.12,2.043l-0.022-0.022c0,0-3.571,3.14-7.124,6.28c-0.802,0.705-1.595,1.401-2.348,2.069
			c-0.992-0.323-2.048-0.501-3.155-0.501c-5.575,0-10.116,4.538-10.116,10.116C46.591,91.617,51.132,96.158,56.707,96.158z
			 M273.356,133.217c-3.524,0-6.389-2.868-6.389-6.389s2.864-6.384,6.389-6.384c3.519,0,6.383,2.862,6.383,6.384
			S276.875,133.217,273.356,133.217z M56.707,80.954c2.812,0,5.085,2.274,5.085,5.077c0,2.801-2.274,5.082-5.085,5.082
			c-2.799,0-5.073-2.281-5.073-5.082C51.633,83.231,53.907,80.954,56.707,80.954z"/>
		<path d="M69.095,201.496c19.893-7.136,91.263-35.799,133.522-92.792c4.688-0.876,8.251-4.997,8.251-9.941
			c0-5.58-4.534-10.125-10.119-10.125s-10.13,4.544-10.13,10.125c0,0.722,0.082,1.422,0.227,2.101
			c-39.203,52.453-105.102,79.548-125.378,86.93c-1.512-0.897-3.28-1.424-5.161-1.424c-5.586,0-10.124,4.537-10.124,10.119
			s4.538,10.123,10.124,10.123C64.062,206.612,67.346,204.552,69.095,201.496z M200.749,93.681c2.799,0,5.078,2.274,5.078,5.079
			c0,2.799-2.279,5.08-5.078,5.08c-2.807,0-5.082-2.281-5.082-5.08C195.667,95.955,197.949,93.681,200.749,93.681z M60.307,201.574
			c-2.804,0-5.085-2.286-5.085-5.085s2.281-5.082,5.085-5.082c2.8,0,5.081,2.283,5.081,5.082
			C65.387,199.292,63.106,201.574,60.307,201.574z"/>
		<path d="M81.353,235.505l84.806-47.578c0.514-0.284,0.985-0.633,1.403-1.033l76.911-73.014c2.632-2.495,2.939-6.577,0.723-9.448
			l-30.8-39.709c-2.043-2.641-5.653-3.48-8.654-2.03L156.99,86.325c-0.512,0.25-0.986,0.561-1.417,0.922l-56.16,46.495
			c-2.853,1.672-19.536,11.228-37.769,16.859c-1.578-1.02-3.455-1.619-5.474-1.619c-5.583,0-10.124,4.544-10.124,10.123
			c0,5.587,4.541,10.119,10.124,10.119c3.638,0,6.822-1.93,8.61-4.816c21.965-6.6,41.497-18.311,42.359-18.832
			c0.298-0.183,0.582-0.385,0.849-0.603l55.929-46.313l42.84-20.763l23.367,30.141l-71.64,68.011l-85.291,47.842
			c-0.592-0.106-1.194-0.175-1.819-0.175c-5.582,0-10.128,4.545-10.128,10.126c0,5.585,4.546,10.12,10.128,10.12
			C76.395,243.962,80.554,240.296,81.353,235.505z M56.175,164.184c-2.807,0-5.082-2.281-5.082-5.082
			c0-2.803,2.275-5.077,5.082-5.077c2.799,0,5.078,2.274,5.078,5.077C61.253,161.903,58.971,164.184,56.175,164.184z
			 M71.376,238.924c-2.803,0-5.084-2.282-5.084-5.082c0-2.803,2.281-5.081,5.084-5.081c2.801,0,5.082,2.278,5.082,5.081
			C76.461,236.642,74.177,238.924,71.376,238.924z"/>
		<path d="M213.534,311.022c-0.691,0-1.369,0.075-2.026,0.208L177.8,293.627c-2.405-1.252-5.312-1.022-7.487,0.596l-26.002,19.366
			c-1.03-0.359-2.13-0.558-3.284-0.558c-5.585,0-10.123,4.541-10.123,10.122c0,5.582,4.538,10.127,10.123,10.127
			c4.394,0,8.131-2.824,9.533-6.735l24.633-18.35l28.394,14.825c0.887,4.691,5.007,8.247,9.948,8.247
			c5.585,0,10.123-4.538,10.123-10.119C223.657,315.563,219.119,311.022,213.534,311.022z M141.027,328.235
			c-2.803,0-5.083-2.275-5.083-5.078s2.281-5.078,5.083-5.078c2.801,0,5.082,2.275,5.082,5.078
			C146.112,325.96,143.828,328.235,141.027,328.235z M213.534,326.23c-2.803,0-5.079-2.279-5.079-5.082
			c0-2.8,2.276-5.085,5.079-5.085c2.799,0,5.082,2.285,5.082,5.085C218.616,323.951,216.333,326.23,213.534,326.23z"/>
		<path d="M238.889,275.104c-1.434,0-2.796,0.301-4.031,0.842l-53.016-26.816c-2.231-1.122-4.891-0.989-6.995,0.353
			c-1.845,1.184-40.109,25.687-58.139,37.794c-1.02-0.346-2.11-0.54-3.244-0.54c-5.583,0-10.128,4.537-10.128,10.115
			c0,5.592,4.544,10.13,10.128,10.13c4.481,0,8.28-2.93,9.611-6.975c14.294-9.653,45.63-29.807,55.988-36.449l50.467,25.522
			c1.52,3.676,5.137,6.276,9.359,6.276c5.585,0,10.123-4.545,10.123-10.119C249.012,279.641,244.474,275.104,238.889,275.104z
			 M113.463,301.937c-2.805,0-5.085-2.276-5.085-5.086c0-2.796,2.281-5.074,5.085-5.074c2.799,0,5.08,2.278,5.08,5.074
			C118.543,299.66,116.263,301.937,113.463,301.937z M238.889,290.312c-2.803,0-5.078-2.283-5.078-5.082
			c0-2.803,2.275-5.082,5.078-5.082s5.082,2.279,5.082,5.082C243.971,288.028,241.691,290.312,238.889,290.312z"/>
		<path d="M258.152,241.135c-1.41,0-2.741,0.287-3.963,0.808l-67.438-36.983c-2.159-1.181-4.78-1.156-6.919,0.082L89.95,256.928
			c-1.059-0.376-2.187-0.589-3.369-0.589c-5.578,0-10.123,4.542-10.123,10.123c0,5.578,4.544,10.119,10.123,10.119
			c4.476,0,8.282-2.922,9.609-6.957l87.256-50.374l65.336,35.823c1.513,3.692,5.137,6.3,9.37,6.3
			c5.581,0,10.126-4.534,10.126-10.119C268.278,245.68,263.733,241.135,258.152,241.135z M81.497,266.466
			c0-2.803,2.281-5.086,5.083-5.086c2.801,0,5.082,2.283,5.082,5.086c0,2.799-2.281,5.075-5.082,5.075
			C83.778,271.541,81.497,269.262,81.497,266.466z M258.152,256.339c-2.807,0-5.086-2.282-5.086-5.081
			c0-2.803,2.279-5.086,5.086-5.086c2.799,0,5.078,2.283,5.078,5.086S260.951,256.339,258.152,256.339z"/>
		<path d="M264.449,202.892c-0.866,0-1.697,0.124-2.502,0.325c-6.293-3.326-12.583-6.652-18.873-9.972
			c-0.537-0.284-1.081-0.571-1.608-0.855c-0.137-0.075-0.223-0.113-0.294-0.147c-0.11-0.096-0.236-0.212-0.404-0.359
			c-2.591-2.286-4.709-5.126-6.704-7.926c-1.831-2.563-3.569-5.212-5.201-7.912c0.838-1.478,1.324-3.179,1.324-4.996
			c0-5.578-4.541-10.121-10.119-10.121c-5.589,0-10.134,4.543-10.134,10.121c0,3.535,1.828,6.646,4.579,8.463
			c2.279,3.96,4.743,7.823,7.357,11.574c3.519,5.048,7.58,10.916,13.162,13.859c6.513,3.446,13.038,6.896,19.561,10.342
			c1.041,4.49,5.055,7.851,9.856,7.851c5.581,0,10.129-4.541,10.129-10.123C274.578,207.437,270.03,202.892,264.449,202.892z
			 M220.067,165.974c2.799,0,5.075,2.275,5.075,5.078c0,2.804-2.276,5.082-5.075,5.082c-2.81,0-5.086-2.278-5.086-5.082
			C214.981,168.249,217.258,165.974,220.067,165.974z M264.449,218.097c-2.807,0-5.082-2.279-5.082-5.082
			c0-2.799,2.275-5.078,5.082-5.078c2.796,0,5.078,2.279,5.078,5.078C269.527,215.817,267.245,218.097,264.449,218.097z"/>
		<path d="M277.111,164.432c-1.027,0-2.009,0.154-2.943,0.438l-3.908-2.786c-1.865-1.324-3.73-2.652-5.599-3.981
			c-0.038-0.028-0.075-0.058-0.116-0.084c-3.21-4.692-6.42-9.387-9.623-14.081c0.469-1.167,0.732-2.435,0.732-3.766
			c0-5.583-4.545-10.125-10.123-10.125c-5.585,0-10.126,4.542-10.126,10.125c0,4.22,2.598,7.835,6.272,9.356
			c3.84,5.621,7.673,11.238,11.52,16.856c2.101,3.069,6.152,5.194,9.137,7.323c1.677,1.194,3.36,2.392,5.037,3.59
			c1.198,4.254,5.106,7.378,9.74,7.378c5.581,0,10.122-4.541,10.122-10.119C287.237,168.976,282.696,164.432,277.111,164.432z
			 M245.538,135.087c2.8,0,5.075,2.277,5.075,5.082c0,2.799-2.275,5.08-5.075,5.08c-2.806,0-5.085-2.281-5.085-5.08
			C240.446,137.368,242.732,135.087,245.538,135.087z M277.111,179.639c-2.807,0-5.082-2.282-5.082-5.082
			c0-2.803,2.275-5.082,5.082-5.082c2.803,0,5.078,2.279,5.078,5.082C282.196,177.356,279.914,179.639,277.111,179.639z"/>
		<path d="M173.434,36.646c-17.828,11.589-35.651,23.173-53.473,34.766c-7.878,5.119-14.599,11.887-21.637,18.093
			c-5.09,4.488-10.186,8.981-15.282,13.475c-0.074,0.062-0.144,0.125-0.221,0.192c-0.207,0.15-0.613,0.441-1.114,0.732
			c-3.866,2.284-7.797,4.454-11.8,6.483c-1.752,0.883-3.525,1.723-5.32,2.521c-0.063,0.024-0.104,0.041-0.15,0.062
			c-0.091,0.04-0.185,0.074-0.277,0.11c-1.679-1.237-3.746-1.977-5.992-1.977c-5.578,0-10.123,4.538-10.123,10.12
			c0,5.583,4.544,10.124,10.123,10.124c3.287,0,6.203-1.574,8.051-4.005c8.249-2.803,16.084-7.333,23.501-11.764
			c3.754-2.247,6.995-5.862,10.248-8.737c5.996-5.284,11.988-10.564,17.98-15.85c1.979-1.749,3.966-3.498,5.954-5.246l0.284-0.252
			c18.974-12.338,37.954-24.681,56.926-37.019c1.376,0.542,2.868,0.851,4.429,0.851c6.7,0,12.142-5.445,12.142-12.139
			c0-6.697-5.441-12.145-12.142-12.145C179.035,25.039,173.721,30.196,173.434,36.646z M53.095,121.221
			c0-2.803,2.281-5.081,5.077-5.081c2.801,0,5.082,2.278,5.082,5.081c0,2.804-2.281,5.078-5.082,5.078
			C55.375,126.302,53.095,124.028,53.095,121.221z M192.639,37.181c0,3.912-3.176,7.096-7.091,7.096s-7.098-3.188-7.098-7.096
			c0-3.918,3.183-7.099,7.098-7.099C189.463,30.085,192.639,33.268,192.639,37.181z"/>
	</g>
</g>
<g>
</g>
<g>
</g>
<g>
</g>
<g>
</g>
<g>
</g>
<g>
</g>
<g>
</g>
<g>
</g>
<g>
</g>
<g>
</g>
<g>
</g>
<g>
</g>
<g>
</g>
<g>
</g>
<g>
</g>
</svg>
