<?xml version="1.0" encoding="iso-8859-1"?>
<!-- Generator: Adobe Illustrator 16.0.0, SVG Export Plug-In . SVG Version: 6.00 Build 0)  -->
<!DOCTYPE svg PUBLIC "-//W3C//DTD SVG 1.1//EN" "http://www.w3.org/Graphics/SVG/1.1/DTD/svg11.dtd">
<svg version="1.1" id="Capa_1" xmlns="http://www.w3.org/2000/svg" xmlns:xlink="http://www.w3.org/1999/xlink" x="0px" y="0px"
	 width="317.779px" height="317.779px" viewBox="0 0 317.779 317.779" style="enable-background:new 0 0 317.779 317.779;"
	 xml:space="preserve">
<g>
	<g>
		<path d="M57.349,89.311c2.13,0.467,4.1,0.435,10.166-4.227c2.695-2.067,6.677-5.557,10.355-10.418l1.608-2.134
			c13.772-18.32,46.015-61.206,92.582-58.875c38.403,2.803,65.63,31.804,78.727,83.879c0.445,1.766,0.716,2.853,1.017,3.689
			c1.999,8.516,5.359,19.123,10.191,22.614c1.201,0.869,2.587,1.283,3.963,1.283c2.104,0,4.182-0.975,5.503-2.814
			c2.118-2.933,1.554-6.985-1.222-9.229c-1.339-1.732-3.857-8.981-5.349-15.461c-0.09-0.382-0.213-0.762-0.367-1.121
			c-0.126-0.438-0.365-1.403-0.585-2.272c-2.073-8.249-7.59-30.175-20.964-50.797C225.703,16.8,202.148,2.232,172.967,0.127
			c-0.045-0.009-0.097-0.009-0.144-0.012C119.029-2.627,83.715,44.333,68.641,64.382l-1.588,2.104
			c-4.129,5.46-9.002,8.853-10.681,9.84c-0.571,0.221-1.119,0.525-1.63,0.912c-2.11,1.602-3.14,4.324-2.572,6.909
			C52.741,86.729,54.764,88.746,57.349,89.311z"/>
		<path d="M227.167,115.315c5.115-12.784,5.242-25.991,0.338-36.234c-4.373-9.135-12.524-15.755-23.568-19.14
			c-16.214-4.962-35.867,4.04-53.875,24.674c-0.224,0.245-24.541,25.788-50.668,42.349c2.782,3.578,4.868,7.705,6.076,12.202
			c21.453-13.362,41.266-32.026,50.026-40.745c1.518-17.699,16.386-31.645,34.468-31.645c19.093,0,34.619,15.531,34.619,34.624
			c0,16.753-11.964,30.757-27.799,33.939c-10.591,10.862-25.06,22.287-42.783,33.637c-16.127,10.328-56.724,35.679-85.396,47.938
			c-3.445,1.472-5.04,5.458-3.571,8.9c1.1,2.57,3.607,4.114,6.239,4.114c0.886,0,1.793-0.172,2.662-0.545
			c29.609-12.658,70.969-38.472,87.379-48.98C185.735,164.764,216.979,140.778,227.167,115.315z"/>
		<path d="M117.969,64.697c-3.076,3.388-5.841,7.029-8.812,10.502c-3.894,4.555-8.155,8.809-12.599,12.821
			c-4.57,4.128-8.266,7.082-13.663,10.177c-5.718,3.28-11.546,6.598-17.472,9.486c-2.04,0.991-3.789,1.636-6.081,2.327
			c-3.525,1.061-5.715,4.695-4.742,8.307c5.139-3.017,11.098-4.782,17.48-4.782c3.06,0,6.009,0.438,8.838,1.188
			c0.501-0.284,1.002-0.56,1.502-0.844c5.285-3.004,10.539-5.713,15.398-9.409c9.469-7.202,17.621-15.608,25.115-24.811
			c3.035-3.725,6.279-7.276,9.669-10.681c1.854-1.862,3.767-3.657,5.719-5.412c1.017-0.914,2.05-1.804,3.094-2.68
			c0.53-0.448,1.069-0.886,1.605-1.324c0.144-0.113,1.192-0.946,1.466-1.16c4.719-3.621,9.748-6.834,15.04-9.553
			c4.997-2.568,10.014-4.37,16.102-5.634c2.019-0.421,2.457-0.467,3.966-0.625c3.676-0.378,6.783-2.796,6.783-6.781
			c0-3.408-3.094-7.163-6.783-6.781C155.088,31.577,134.125,46.901,117.969,64.697z"/>
		<path d="M65.2,194.527c12.065-4.141,64.98-23.853,107.011-63.462c-3.922-2.358-7.33-5.463-10.047-9.125
			c-19.043,17.802-40.443,31.346-58.86,41.076c-5.571,11.666-17.455,19.77-31.226,19.77c-3.5,0-6.872-0.53-10.061-1.502
			c-0.438,0.157-0.862,0.301-1.224,0.428c-0.301,0.1-0.482,0.168-0.549,0.195c-3.504,1.324-5.267,5.235-3.942,8.74
			c1.026,2.71,3.605,4.38,6.343,4.38c0.767,0,1.549-0.13,2.312-0.407L65.2,194.527z"/>
		<path d="M249.708,234.894c-9.4-3.138-20.896-11.323-32.021-19.242c-16.108-11.475-30.009-21.382-41.344-19.428
			c-8.514,1.472-23.387,10.975-46.87,26.453c-16.929,11.166-36.119,23.812-44.462,26.06c-3.617,0.972-5.761,4.695-4.788,8.31
			c0.818,3.024,3.554,5.023,6.543,5.023c0.585,0,1.177-0.075,1.766-0.236c10.46-2.816,28.894-14.965,48.405-27.825
			c15.762-10.39,35.375-23.322,41.716-24.417c5.759-0.979,19.845,9.044,31.172,17.11c11.934,8.501,24.271,17.289,35.598,21.063
			c3.552,1.188,7.392-0.736,8.576-4.288C255.177,239.918,253.254,236.079,249.708,234.894z"/>
		<path d="M232.732,268.11c-4.309-1.554-10.742-5.305-17.478-9.414c-1.067,4.548-3.032,8.743-5.694,12.412
			c6.988,4.236,13.429,7.898,18.562,9.753c3.519,1.273,7.413-0.548,8.683-4.072C238.074,273.274,236.253,269.383,232.732,268.11z"/>
		<path d="M147.01,251.971c-8.333,5.574-18.495,12.836-30.736,21.771c-3.619,2.642-6.742,4.921-8.908,6.454
			c-3.059,2.159-3.788,6.393-1.625,9.449c1.321,1.871,3.417,2.867,5.544,2.867c1.352,0,2.719-0.4,3.906-1.242
			c2.253-1.592,5.417-3.901,9.081-6.577c5.778-4.216,16.262-11.868,26.236-18.702C148.415,261.734,147.177,256.988,147.01,251.971z"
			/>
		<path d="M209.833,301.818c-3.812-2.484-7.312-4.982-10.701-7.395c-4.876-3.48-9.462-6.76-13.959-9.179
			c-1.184,0.12-2.385,0.188-3.6,0.188c-5.485,0-10.653-1.318-15.267-3.597c-11.892,3.285-29.355,20.82-32.866,24.451
			c-2.603,2.689-2.532,6.981,0.154,9.582c1.314,1.276,3.018,1.909,4.717,1.909c1.769,0,3.542-0.688,4.872-2.063
			c9.079-9.38,21.983-20.04,26.987-20.902c4.955-0.849,12.436,4.473,21.087,10.646c3.337,2.378,7.114,5.078,11.163,7.717
			c3.135,2.05,7.337,1.163,9.384-1.975C213.848,308.067,212.965,303.865,209.833,301.818z"/>
		<path d="M269.496,161.859c-5.653-2.389-11.56-4.897-16.32-8.854c-5.239-4.36-7.676-10.082-8.761-16.688
			c-1.42-8.61-14.485-4.949-13.076,3.605c2.902,17.592,15.845,27.11,31.313,33.644c3.408,1.44,7.228,1.061,9.273-2.43
			C273.613,168.258,272.904,163.296,269.496,161.859z"/>
		<path d="M256.337,197.237c-5.092-1.567-8.955-3.559-14.349-6.741c-9.866-5.832-18.863-14.284-23.243-25.071
			c-1.387-3.422-4.459-5.804-8.34-4.736c-3.248,0.896-6.123,4.904-4.733,8.344c8.08,19.924,26.628,34.984,47.062,41.274
			C261.112,212.89,264.667,199.807,256.337,197.237z"/>
		<path d="M100.196,148.031c0-15.222-12.388-27.61-27.61-27.61c-15.224,0-27.612,12.388-27.612,27.61
			c0,15.23,12.388,27.615,27.612,27.615C87.808,175.646,100.196,163.261,100.196,148.031z"/>
		<path d="M190.478,128.888c15.226,0,27.61-12.386,27.61-27.61c0-15.23-12.389-27.613-27.61-27.613s-27.609,12.383-27.609,27.613
			C162.869,116.501,175.256,128.888,190.478,128.888z"/>
		<path d="M209.69,250.684c0-15.222-12.388-27.61-27.609-27.61s-27.61,12.389-27.61,27.61c0,15.229,12.389,27.613,27.61,27.613
			S209.69,265.913,209.69,250.684z"/>
	</g>
</g>
<g>
</g>
<g>
</g>
<g>
</g>
<g>
</g>
<g>
</g>
<g>
</g>
<g>
</g>
<g>
</g>
<g>
</g>
<g>
</g>
<g>
</g>
<g>
</g>
<g>
</g>
<g>
</g>
<g>
</g>
</svg>
