<?xml version="1.0" encoding="iso-8859-1"?>
<!-- Generator: Adobe Illustrator 18.0.0, SVG Export Plug-In . SVG Version: 6.00 Build 0)  -->
<!DOCTYPE svg PUBLIC "-//W3C//DTD SVG 1.1//EN" "http://www.w3.org/Graphics/SVG/1.1/DTD/svg11.dtd">
<svg version="1.1" id="Capa_1" xmlns="http://www.w3.org/2000/svg" xmlns:xlink="http://www.w3.org/1999/xlink" x="0px" y="0px"
	 viewBox="0 0 492.333 492.333" style="enable-background:new 0 0 492.333 492.333;" xml:space="preserve">
<g>
	<path d="M264.325,0C150.626,0,58.129,92.497,58.129,206.188v48.321c0,13.078,10.597,23.675,23.675,23.675
		c13.078,0,23.675-10.597,23.675-23.675v-48.321c0-87.581,71.256-158.838,158.845-158.838c87.58,0,158.836,71.257,158.836,158.838
		v262.471c0,13.078,10.597,23.675,23.675,23.675c13.079,0,23.675-10.597,23.675-23.675V206.188C470.512,92.497,378.016,0,264.325,0z
		"/>
	<path d="M177.862,237.445c2.189-12.892-6.489-25.116-19.382-27.304c-12.848-2.144-25.116,6.488-27.305,19.382
		c-6.272,36.97-25.633,70.471-54.518,94.346l-46.241,38.227c-10.079,8.33-11.498,23.259-3.166,33.332
		c4.684,5.664,11.443,8.594,18.265,8.594c5.31,0,10.659-1.78,15.067-5.427l46.241-38.226
		C144.461,329.265,169.686,285.605,177.862,237.445z"/>
	<path d="M264.325,72.442c-52.745,0-100.104,31.391-120.65,79.968c-5.093,12.044,0.54,25.932,12.578,31.027
		c12.062,5.101,25.94-0.532,31.027-12.578c13.125-31.02,43.367-51.066,77.045-51.066c32.022,0,60.752,17.842,74.972,46.572
		c5.718,11.546,8.616,24.007,8.623,37.023v154.275c0,13.079,10.597,23.675,23.675,23.675c13.08,0,23.675-10.596,23.675-23.675
		V203.381c-0.006-20.376-4.561-39.898-13.541-58.023C359.465,100.381,314.481,72.442,264.325,72.442z"/>
	<path d="M126.335,372.654l-24.146,21.271c-9.811,8.64-10.758,23.605-2.112,33.417c4.679,5.31,11.207,8.022,17.772,8.022
		c5.556,0,11.143-1.949,15.645-5.911l24.146-21.271c9.811-8.638,10.758-23.605,2.112-33.417
		C151.104,364.97,136.154,364.022,126.335,372.654z"/>
	<path d="M264.317,144.024c-34.905,0-63.304,28.4-63.304,63.303c0,41.124-11.475,81.339-33.185,116.288
		c-6.898,11.113-3.483,25.71,7.622,32.607c3.892,2.413,8.207,3.561,12.469,3.561c7.916,0,15.653-3.968,20.138-11.183
		c26.365-42.464,40.307-91.317,40.307-141.273c0-8.793,7.159-15.952,15.954-15.952c8.801,0,15.961,7.159,15.961,15.952
		c0,13.08,10.597,23.675,23.675,23.675s23.675-10.595,23.675-23.675C327.629,172.424,299.229,144.024,264.317,144.024z"/>
	<path d="M303.953,234.124c-13.078,0-23.675,10.598-23.675,23.676v180.139c0,13.078,10.597,23.676,23.675,23.676
		s23.675-10.598,23.675-23.676V257.8C327.629,244.722,317.031,234.124,303.953,234.124z"/>
</g>
<g>
</g>
<g>
</g>
<g>
</g>
<g>
</g>
<g>
</g>
<g>
</g>
<g>
</g>
<g>
</g>
<g>
</g>
<g>
</g>
<g>
</g>
<g>
</g>
<g>
</g>
<g>
</g>
<g>
</g>
</svg>
